<?xml version="1.0" encoding="utf-8"?>
<!-- Generator: Adobe Illustrator 25.4.1, SVG Export Plug-In . SVG Version: 6.00 Build 0)  -->
<svg version="1.1" id="레이어_1" xmlns="http://www.w3.org/2000/svg" xmlns:xlink="http://www.w3.org/1999/xlink" x="0px"
	 y="0px" viewBox="0 0 64 64" style="enable-background:new 0 0 64 64;" xml:space="preserve">
<style type="text/css">
	.st0{display:none;fill:#FF9015;}
	.st1{display:none;}
	.st2{display:inline;}
	.st3{fill:#FFFFFF;}
	.st4{fill:#FF9015;}
	.st5{fill:#FFF5E3;}
</style>
<rect class="st0" width="64" height="64"/>
<g class="st1">
	<g class="st2">
		<path class="st3" d="M-60.25-13.36l-29.33-29.33l15.14-15.14c7.83-7.83,20.56-7.83,28.39,0l15.14,15.14L-60.25-13.36z
			 M-85.39-42.69l25.14,25.14l25.14-25.14l-13.04-13.04c-6.67-6.67-17.53-6.67-24.2,0L-85.39-42.69z"/>
	</g>
	<g class="st2">
		<path class="st3" d="M-70.77-30.14c-0.63,0-1.26-0.25-1.72-0.74c-0.9-0.95-0.86-2.45,0.09-3.35c0.08-0.08,8.14-7.72,14.04-13.62
			c7.25-7.25,12.29-3.58,12.95-2.83c0.66,0.75,0.96,1.67,0.59,2.45c-0.51,1.09-2.03,1.1-2.48,1c-0.45-0.1-3.24-1.73-7.71,2.73
			c-5.95,5.95-14.05,13.63-14.13,13.71C-69.59-30.36-70.18-30.14-70.77-30.14z"/>
	</g>
	<g class="st2">
		<path class="st3" d="M-48.82-30.73c-0.23,0-0.46-0.03-0.69-0.1L-80.8-40.4c-1.25-0.38-1.96-1.71-1.58-2.96
			c0.38-1.25,1.71-1.96,2.96-1.58l21.74,6.65l-13.67-13.08c-0.95-0.91-0.98-2.41-0.07-3.36c0.91-0.95,2.41-0.98,3.36-0.07
			l20.89,19.98c0.79,0.76,0.96,1.97,0.41,2.91C-47.2-31.16-47.99-30.73-48.82-30.73z"/>
	</g>
</g>
<g class="st1">
	<g class="st2">
		<g>
			<path class="st3" d="M7.15,30.69V17.65L32,3.31l24.85,14.34v28.69l-11.29,6.52L7.15,30.69z M45.56,48.6l7.6-4.39V19.79L32,7.57
				L10.84,19.79v8.77L45.56,48.6z"/>
			<path class="st4" d="M32,3.6l24.6,14.2v28.4l-7.85,4.53l-3.19,1.84l-3.19-1.84L10.59,32.39L7.4,30.54v-3.68V17.8L32,3.6
				 M45.56,48.89l7.85-4.53V19.64L32,7.28L10.59,19.64v9.06L45.56,48.89 M32,3.02l-0.25,0.14l-24.6,14.2L6.9,17.51v0.29v9.06v3.68
				v0.29l0.25,0.14l3.19,1.84l31.77,18.35l3.19,1.84l0.25,0.14l0.25-0.14L49,51.16l7.85-4.53l0.25-0.14V46.2V17.8v-0.29l-0.25-0.14
				l-24.6-14.2L32,3.02L32,3.02z M11.09,19.93L32,7.86l20.91,12.07v24.14l-7.35,4.24l-34.47-19.9V19.93L11.09,19.93z"/>
		</g>
		<g>
			<path class="st3" d="M7.15,46.35V32.83l36.55,21.1L32,60.69L7.15,46.35z M32,56.43l4.33-2.5L10.84,39.22v5L32,56.43z"/>
			<path class="st4" d="M7.4,33.26l3.19,1.84l29.42,16.99l3.19,1.84l-3.19,1.84L32,60.4L7.4,46.2v-9.26V33.26 M32,56.72l4.83-2.79
				L10.59,38.78v5.57L32,56.72 M6.9,32.39v0.87v3.68v9.26v0.29l0.25,0.14l24.6,14.2L32,60.98l0.25-0.14l8.02-4.63l3.19-1.84
				l0.75-0.43l-0.75-0.43l-3.19-1.84L10.84,34.67l-3.19-1.84L6.9,32.39L6.9,32.39z M11.09,44.07v-4.42l24.73,14.28L32,56.14
				L11.09,44.07L11.09,44.07z"/>
		</g>
	</g>
	<g class="st2">
		<g>
			<g>
				<path class="st3" d="M38.23,52.11c-0.1,0-0.2,0-0.3-0.02c-1.54-0.17-2.65-1.55-2.49-3.08l3.02-28.16l-22.88,16.7
					c-0.48,0.35-1.05,0.54-1.65,0.54c-0.49,0-0.98-0.13-1.4-0.38c-0.34-0.2-0.63-0.46-0.86-0.78c-0.91-1.25-0.64-3,0.61-3.92
					l27.99-20.43c0.48-0.35,1.05-0.54,1.65-0.54c0.49,0,0.98,0.13,1.4,0.38c0.96,0.55,1.5,1.62,1.39,2.72l-3.69,34.46
					C40.86,51.03,39.67,52.11,38.23,52.11z"/>
				<path class="st4" d="M41.92,12.3c0.44,0,0.88,0.11,1.28,0.34c0.87,0.51,1.37,1.48,1.26,2.48l-3.69,34.46
					c-0.14,1.31-1.25,2.28-2.53,2.28c-0.09,0-0.18,0-0.28-0.01c-1.4-0.15-2.42-1.41-2.27-2.81l3.08-28.72L15.43,37.34
					c-0.45,0.33-0.98,0.49-1.5,0.49c-0.45,0-0.89-0.12-1.28-0.34c-0.3-0.17-0.57-0.41-0.78-0.71c-0.83-1.14-0.58-2.74,0.56-3.57
					l27.99-20.43C40.86,12.46,41.39,12.3,41.92,12.3 M41.92,11.8c-0.65,0-1.27,0.2-1.8,0.59L12.13,32.81
					c-0.66,0.48-1.09,1.19-1.22,1.99c-0.13,0.81,0.07,1.61,0.55,2.27c0.25,0.35,0.57,0.63,0.94,0.84c0.46,0.27,0.99,0.41,1.53,0.41
					c0.65,0,1.27-0.2,1.8-0.59l22.42-16.36l-2.96,27.6c-0.18,1.67,1.04,3.18,2.71,3.36c0.11,0.01,0.22,0.02,0.33,0.02
					c1.56,0,2.87-1.17,3.03-2.73l3.69-34.46c0.13-1.2-0.46-2.36-1.51-2.97C42.98,11.94,42.46,11.8,41.92,11.8L41.92,11.8z"/>
			</g>
		</g>
		<g>
			<g>
				<path class="st3" d="M44.59,41.09c-0.49,0-0.97-0.13-1.4-0.38l-24.3-14.03c-1.34-0.77-1.8-2.49-1.03-3.83
					c0.5-0.86,1.43-1.4,2.43-1.4c0.49,0,0.97,0.13,1.4,0.38l24.3,14.03c1.34,0.77,1.8,2.49,1.03,3.83
					C46.52,40.55,45.59,41.09,44.59,41.09z"/>
				<path class="st4" d="M20.29,21.71c0.43,0,0.87,0.11,1.27,0.34l24.3,14.03c1.22,0.7,1.64,2.27,0.93,3.49
					c-0.47,0.82-1.33,1.28-2.21,1.28c-0.43,0-0.87-0.11-1.27-0.34l-24.3-14.03c-1.22-0.7-1.64-2.27-0.93-3.49
					C18.55,22.16,19.41,21.71,20.29,21.71 M20.29,21.21L20.29,21.21c-1.09,0-2.1,0.58-2.65,1.53c-0.84,1.46-0.34,3.33,1.12,4.17
					l24.3,14.03c0.46,0.27,0.99,0.41,1.52,0.41c1.09,0,2.1-0.58,2.65-1.53c0.41-0.71,0.52-1.53,0.3-2.32
					c-0.21-0.79-0.72-1.45-1.42-1.85l-24.3-14.03C21.35,21.35,20.83,21.21,20.29,21.21L20.29,21.21z"/>
			</g>
		</g>
	</g>
</g>
<g class="st1">
	<g class="st2">
		<g>
			<path class="st3" d="M7.15,30.69V17.65L32,3.31l24.85,14.34v28.69l-11.29,6.52L7.15,30.69z M45.56,48.6l7.6-4.39V19.79L32,7.57
				L10.84,19.79v8.77L45.56,48.6z"/>
			<path class="st4" d="M32,3.6l24.6,14.2v28.4l-7.85,4.53l-3.19,1.84l-3.19-1.84L10.59,32.39L7.4,30.54v-3.68V17.8L32,3.6
				 M45.56,48.89l7.85-4.53V19.64L32,7.28L10.59,19.64v9.06L45.56,48.89 M32,3.02l-0.25,0.14l-24.6,14.2L6.9,17.51v0.29v9.06v3.68
				v0.29l0.25,0.14l3.19,1.84l31.77,18.35l3.19,1.84l0.25,0.14l0.25-0.14L49,51.16l7.85-4.53l0.25-0.14V46.2V17.8v-0.29l-0.25-0.14
				l-24.6-14.2L32,3.02L32,3.02z M11.09,19.93L32,7.86l20.91,12.07v24.14l-7.35,4.24l-34.47-19.9V19.93L11.09,19.93z"/>
		</g>
		<g>
			<path class="st3" d="M7.15,46.35V32.83l36.55,21.1L32,60.69L7.15,46.35z M32,56.43l4.33-2.5L10.84,39.22v5L32,56.43z"/>
			<path class="st4" d="M7.4,33.26l3.19,1.84l29.42,16.99l3.19,1.84l-3.19,1.84L32,60.4L7.4,46.2v-9.26V33.26 M32,56.72l4.83-2.79
				L10.59,38.78v5.57L32,56.72 M6.9,32.39v0.87v3.68v9.26v0.29l0.25,0.14l24.6,14.2L32,60.98l0.25-0.14l8.02-4.63l3.19-1.84
				l0.75-0.43l-0.75-0.43l-3.19-1.84L10.84,34.67l-3.19-1.84L6.9,32.39L6.9,32.39z M11.09,44.07v-4.42l24.73,14.28L32,56.14
				L11.09,44.07L11.09,44.07z"/>
		</g>
	</g>
	<g class="st2">
		<g>
			<g>
				<path class="st3" d="M17.97,48.22c-0.39,0-0.77-0.08-1.13-0.24c-0.68-0.3-1.21-0.85-1.48-1.55c-0.27-0.7-0.25-1.46,0.05-2.14
					l14.03-31.69c0.45-1.01,1.45-1.67,2.56-1.67c1.11,0,2.11,0.65,2.56,1.67l14.03,31.69c0.3,0.68,0.32,1.45,0.05,2.14
					s-0.8,1.25-1.48,1.55c-0.36,0.16-0.74,0.24-1.13,0.24c-1.11,0-2.12-0.65-2.56-1.67L32,20.65l-11.47,25.9
					C20.08,47.56,19.08,48.22,17.97,48.22z"/>
				<path class="st4" d="M32,11.18c1.01,0,1.92,0.6,2.33,1.52l14.03,31.69c0.57,1.29-0.01,2.8-1.3,3.37
					c-0.34,0.15-0.69,0.22-1.03,0.22c-0.98,0-1.91-0.57-2.34-1.52L32,20.03L20.3,46.45c-0.42,0.95-1.36,1.52-2.33,1.52
					c-0.35,0-0.7-0.07-1.03-0.22c-1.29-0.57-1.87-2.08-1.3-3.37L29.67,12.7C30.08,11.77,30.99,11.18,32,11.18 M32,10.68
					c-1.21,0-2.3,0.71-2.79,1.82L15.18,44.18c-0.33,0.75-0.35,1.57-0.06,2.34c0.29,0.76,0.87,1.36,1.61,1.69
					c0.39,0.17,0.81,0.26,1.23,0.26c1.21,0,2.3-0.71,2.79-1.82L32,21.27l11.24,25.38c0.49,1.1,1.58,1.82,2.79,1.82
					c0.43,0,0.84-0.09,1.23-0.26c0.75-0.33,1.32-0.93,1.61-1.69c0.29-0.76,0.27-1.59-0.06-2.34L34.79,12.49
					C34.3,11.39,33.21,10.68,32,10.68L32,10.68z"/>
			</g>
		</g>
		<g>
			<g>
				<path class="st3" d="M17.97,35.49c-1.54,0-2.8-1.26-2.8-2.8s1.26-2.8,2.8-2.8h28.06c1.54,0,2.8,1.26,2.8,2.8s-1.26,2.8-2.8,2.8
					H17.97z"/>
				<path class="st4" d="M46.03,30.14c1.41,0,2.55,1.14,2.55,2.55c0,1.41-1.14,2.55-2.55,2.55H17.97c-1.41,0-2.55-1.14-2.55-2.55
					c0-1.41,1.14-2.55,2.55-2.55H46.03 M46.03,29.64H17.97c-1.68,0-3.05,1.37-3.05,3.05s1.37,3.05,3.05,3.05h28.06
					c1.68,0,3.05-1.37,3.05-3.05S47.71,29.64,46.03,29.64L46.03,29.64z"/>
			</g>
		</g>
	</g>
</g>
<g>
	<g>
		<g>
			<path class="st3" d="M6.9,30.83V17.51L32,3.02l25.1,14.49v28.98l-11.54,6.66L6.9,30.83z M45.56,48.31l7.35-4.24V19.93L32,7.86
				L11.09,19.93v8.48L45.56,48.31z"/>
			<path class="st5" d="M32,3.6l24.6,14.2v28.4l-7.85,4.53l-3.19,1.84l-3.19-1.84L10.59,32.39L7.4,30.54v-3.68V17.8L32,3.6
				 M45.56,48.89l7.85-4.53V19.64L32,7.28L10.59,19.64v9.06L45.56,48.89 M32,2.44l-0.5,0.29L6.9,16.93l-0.5,0.29v0.58v9.06v3.68
				v0.58l0.5,0.29l3.19,1.84L41.87,51.6l3.19,1.84l0.5,0.29l0.5-0.29l3.19-1.84l7.85-4.53l0.5-0.29V46.2V17.8v-0.58l-0.5-0.29
				L32.5,2.73L32,2.44L32,2.44z M11.59,20.22L32,8.44l20.41,11.78v23.56l-6.85,3.95L11.59,28.12V20.22L11.59,20.22z"/>
		</g>
		<g>
			<path class="st3" d="M6.9,46.49v-14.1l37.3,21.54L32,60.98L6.9,46.49z M32,56.14l3.83-2.21L11.09,39.65v4.42L32,56.14z"/>
			<path class="st5" d="M7.4,33.26l3.19,1.84l29.42,16.99l3.19,1.84l-3.19,1.84L32,60.4L7.4,46.2v-9.26V33.26 M32,56.72l4.83-2.79
				L10.59,38.78v5.57L32,56.72 M6.4,31.53v1.73v3.68v9.26v0.58l0.5,0.29l24.6,14.2l0.5,0.29l0.5-0.29l8.02-4.63l3.19-1.84l1.5-0.87
				l-1.5-0.87l-3.19-1.84L11.09,34.23L7.9,32.39L6.4,31.53L6.4,31.53z M11.59,43.78v-3.27l23.23,13.41L32,55.56L11.59,43.78
				L11.59,43.78z"/>
		</g>
	</g>
	<g>
		<g>
			<g>
				<path class="st3" d="M17.97,48.47c-0.42,0-0.84-0.09-1.23-0.26c-0.75-0.33-1.32-0.93-1.61-1.69c-0.29-0.76-0.27-1.59,0.06-2.33
					l14.03-31.69c0.49-1.1,1.58-1.82,2.79-1.82c1.21,0,2.3,0.71,2.79,1.82l14.03,31.69c0.33,0.75,0.35,1.58,0.06,2.33
					c-0.29,0.76-0.87,1.36-1.61,1.69c-0.39,0.17-0.81,0.26-1.23,0.26c-1.21,0-2.3-0.71-2.79-1.82L32,21.27L20.76,46.65
					C20.27,47.76,19.18,48.47,17.97,48.47z"/>
				<path class="st5" d="M32,11.18c1.01,0,1.92,0.6,2.33,1.52l14.03,31.69c0.57,1.29-0.01,2.8-1.3,3.37
					c-0.34,0.15-0.69,0.22-1.03,0.22c-0.98,0-1.91-0.57-2.34-1.52L32,20.03L20.3,46.45c-0.42,0.95-1.36,1.52-2.33,1.52
					c-0.35,0-0.7-0.07-1.03-0.22c-1.29-0.57-1.87-2.08-1.3-3.37L29.67,12.7C30.08,11.77,30.99,11.18,32,11.18 M32,10.18
					c-1.4,0-2.68,0.83-3.25,2.11L14.72,43.98c-0.38,0.87-0.41,1.83-0.07,2.72c0.34,0.89,1.01,1.58,1.88,1.97
					c0.46,0.2,0.94,0.3,1.44,0.3c1.41,0,2.68-0.83,3.25-2.11L32,22.5l10.78,24.35c0.57,1.28,1.84,2.11,3.25,2.11
					c0.5,0,0.98-0.1,1.44-0.3c0.87-0.38,1.53-1.08,1.88-1.97c0.34-0.89,0.32-1.85-0.07-2.72L35.25,12.29
					C34.68,11.01,33.4,10.18,32,10.18L32,10.18z"/>
			</g>
		</g>
		<g>
			<g>
				<path class="st3" d="M17.97,35.74c-1.68,0-3.05-1.37-3.05-3.05s1.37-3.05,3.05-3.05h28.06c1.68,0,3.05,1.37,3.05,3.05
					s-1.37,3.05-3.05,3.05H17.97z"/>
				<path class="st5" d="M46.03,30.14c1.41,0,2.55,1.14,2.55,2.55c0,1.41-1.14,2.55-2.55,2.55H17.97c-1.41,0-2.55-1.14-2.55-2.55
					c0-1.41,1.14-2.55,2.55-2.55H46.03 M46.03,29.14H17.97c-1.96,0-3.55,1.59-3.55,3.55s1.59,3.55,3.55,3.55h28.06
					c1.96,0,3.55-1.59,3.55-3.55S47.99,29.14,46.03,29.14L46.03,29.14z"/>
			</g>
		</g>
	</g>
</g>
</svg>
